<svg width="644" height="476" viewBox="0 0 644 476" fill="none" xmlns="http://www.w3.org/2000/svg">
<g clip-path="url(#clip0_104_22)">
<path d="M114.135 367.394C113.224 365.7 109.283 367.514 108.558 365.976C107.836 364.444 111.498 362.11 113.59 356.778C113.967 355.816 116.344 349.757 114.584 347.887C111.249 344.342 95.9839 358.969 90.642 354.182C89.4696 353.132 88.6506 351.035 85.1024 347.63C83.6908 346.276 82.8373 345.664 82.0112 345.892C80.8391 346.215 80.7463 347.945 79.4894 351.347C77.6045 356.449 76.4897 356.141 75.3914 360.211C74.5761 363.233 74.7624 364.99 73.803 365.332C72.4455 365.816 71.1959 362.611 69.4754 362.898C67.7198 363.191 66.6583 366.923 66.3231 369.717C65.6939 374.96 67.4398 378.42 68.4074 382.058C69.459 386.011 70.083 392.024 67.6546 400.536L43.6189 475.227C48.9253 459.9 64.2897 417.887 70.7458 402.274C72.6096 397.767 74.6674 393.195 78.8928 391.391C82.9609 389.654 88.5479 390.691 95.6706 388.799C96.5025 388.578 98.8109 387.93 99.1015 386.432C99.3417 385.194 97.9839 384.503 98.1925 383.344C98.4723 381.788 101.142 381.769 104.424 379.975C106.737 378.709 108.179 377.205 109.418 375.911C109.792 375.52 115.347 369.649 114.135 367.394Z" fill="#F2F2F2"/>
<path d="M19.5709 406.715C18.5541 406.719 18.2243 409.376 17.3311 409.324C16.441 409.273 16.4588 406.618 14.6895 403.947C14.3704 403.465 12.3597 400.43 11.0199 400.843C8.48019 401.626 10.5845 414.109 6.91321 415.62C6.10754 415.952 4.93804 415.79 2.39926 416.728C1.38927 417.102 0.870881 417.387 0.733769 417.9C0.539236 418.628 1.28236 419.177 2.43357 420.839C4.16005 423.332 3.70129 423.846 5.19576 425.615C6.30519 426.928 7.1407 427.334 7.01618 427.952C6.84002 428.827 5.05322 428.579 4.68451 429.593C4.3083 430.628 5.66267 432.279 6.80927 433.267C8.96099 435.12 11.0043 435.173 12.9024 435.699C14.9652 436.271 17.8209 437.668 20.9079 441.438L47.2107 476C41.9214 468.706 27.6582 448.266 22.5734 440.266C21.1055 437.957 19.6649 435.524 20.0812 432.716C20.482 430.013 22.5555 427.288 23.7685 422.886C23.9102 422.372 24.2879 420.935 23.7054 420.346C23.2238 419.859 22.5245 420.394 22.0687 419.947C21.4573 419.347 22.2192 417.896 22.3674 415.602C22.4719 413.984 22.2182 412.77 22 411.725C21.9342 411.41 20.9243 406.709 19.5709 406.715Z" fill="#F2F2F2"/>
<path d="M39.8545 411.737L39.2419 405.706L39.5218 405.248C40.8169 403.134 41.477 401.069 41.4849 399.109C41.4863 398.798 41.473 398.486 41.4599 398.169C41.407 396.911 41.341 395.347 42.0804 393.524C42.4949 392.508 43.6593 390.155 45.4099 390.446C45.8812 390.519 46.2377 390.757 46.5083 391.037C46.5479 390.967 46.5888 390.897 46.6324 390.821C47.1776 389.904 47.6093 389.511 48.0252 389.132C48.3447 388.841 48.6747 388.541 49.1922 387.831C49.4193 387.519 49.5962 387.245 49.7454 387.015C50.1983 386.319 50.7897 385.489 51.8326 385.504C52.9469 385.562 53.5304 386.578 53.9172 387.251C54.6077 388.451 54.9206 389.316 55.1278 389.89C55.2031 390.099 55.2889 390.335 55.3325 390.408C55.6916 390.99 58.6106 390.446 59.7102 390.248C62.1803 389.793 64.3177 389.4 65.1983 391.118C65.8294 392.347 65.3607 393.972 63.7632 396.078C63.2655 396.733 62.7361 397.231 62.2661 397.621C62.6556 397.878 63.0041 398.271 63.1454 398.888C63.4781 400.35 62.3388 401.815 59.7604 403.248C59.1201 403.606 58.258 404.084 57.0501 404.314C56.4811 404.421 55.9688 404.448 55.5305 404.462C55.5213 404.742 55.4619 405.045 55.3074 405.356C54.8546 406.273 53.912 406.71 52.4914 406.605C50.9283 406.515 49.6412 406.186 48.5058 405.898C47.5143 405.647 46.6601 405.435 45.9895 405.484C44.7459 405.595 43.7874 406.693 42.6626 408.117L39.8545 411.737Z" fill="#F2F2F2"/>
<path d="M42.696 375.828L37.562 378.011L37.09 377.828C34.9072 376.983 32.929 376.802 31.2081 377.291C30.9345 377.369 30.6646 377.462 30.3895 377.556C29.2996 377.932 27.9448 378.399 26.1585 378.073C25.1619 377.888 22.8029 377.243 22.6143 375.301C22.5586 374.78 22.6776 374.339 22.8542 373.979C22.7828 373.955 22.7111 373.929 22.6337 373.902C21.6909 373.553 21.2366 373.192 20.7991 372.844C20.4626 372.577 20.1158 372.301 19.3614 371.929C19.0305 371.766 18.7456 371.647 18.5059 371.546C17.7807 371.239 16.9028 370.819 16.651 369.703C16.4195 368.499 17.1628 367.619 17.6547 367.035C18.5318 365.994 19.211 365.441 19.6615 365.075C19.8263 364.941 20.0115 364.79 20.0643 364.725C20.484 364.194 19.266 361.218 18.8134 360.095C17.7884 357.575 16.9015 355.394 18.185 354.019C19.1028 353.034 20.6468 353.122 22.8986 354.292C23.5995 354.657 24.1705 355.095 24.632 355.498C24.7579 355.017 25.0143 354.546 25.52 354.239C26.7177 353.513 28.2913 354.357 30.202 356.744C30.6785 357.336 31.3161 358.135 31.8242 359.365C32.063 359.945 32.2159 360.485 32.3399 360.949C32.5875 360.888 32.8681 360.874 33.1806 360.96C34.1 361.21 34.7222 362.105 34.9905 363.647C35.3079 365.338 35.3457 366.795 35.3809 368.079C35.4127 369.2 35.4429 370.165 35.6565 370.868C36.069 372.167 37.275 372.911 38.8092 373.75L42.696 375.828Z" fill="#F2F2F2"/>
<path d="M39.8545 358.06L39.2419 352.029L39.5218 351.571C40.8169 349.457 41.477 347.392 41.4849 345.432C41.4863 345.121 41.473 344.809 41.4599 344.492C41.407 343.234 41.341 341.67 42.0804 339.847C42.4949 338.831 43.6593 336.478 45.4099 336.769C45.8812 336.842 46.2377 337.08 46.5083 337.36C46.5479 337.29 46.5888 337.22 46.6324 337.144C47.1776 336.227 47.6093 335.834 48.0252 335.455C48.3447 335.164 48.6747 334.864 49.1922 334.154C49.4193 333.842 49.5962 333.568 49.7454 333.338C50.1983 332.642 50.7897 331.812 51.8326 331.827C52.9469 331.885 53.5304 332.901 53.9172 333.574C54.6077 334.774 54.9206 335.639 55.1278 336.213C55.2031 336.422 55.2889 336.658 55.3325 336.731C55.6916 337.313 58.6106 336.769 59.7102 336.571C62.1803 336.116 64.3177 335.723 65.1983 337.441C65.8294 338.67 65.3607 340.295 63.7632 342.401C63.2655 343.056 62.7361 343.554 62.2661 343.944C62.6556 344.201 63.0041 344.594 63.1454 345.211C63.4781 346.673 62.3388 348.138 59.7604 349.571C59.1201 349.929 58.258 350.407 57.0501 350.637C56.4811 350.744 55.9688 350.771 55.5305 350.785C55.5213 351.065 55.4619 351.368 55.3074 351.679C54.8546 352.596 53.912 353.033 52.4914 352.928C50.9283 352.838 49.6412 352.509 48.5058 352.221C47.5143 351.97 46.6601 351.758 45.9895 351.807C44.7459 351.918 43.7874 353.016 42.6626 354.44L39.8545 358.06Z" fill="#F2F2F2"/>
<path d="M45.4496 475.129L44.3037 474.337L42.9676 474.506C42.9465 474.369 42.8739 474.054 42.7644 473.562C42.1663 470.865 40.3431 462.659 38.8222 449.735C37.7608 440.713 37.1601 431.438 37.036 422.162C36.9119 412.872 37.3106 405.84 37.6301 400.187C37.8717 395.924 38.1648 391.864 38.4526 387.909C39.2183 377.344 39.9404 367.364 39.4031 356.315C39.2843 353.849 39.0348 348.715 36.3152 343.251C34.7375 340.083 32.5645 337.27 29.8555 334.893L31.54 332.558C34.5303 335.185 36.9343 338.301 38.6863 341.819C41.7016 347.876 41.9735 353.47 42.1042 356.158C42.6508 367.402 41.9207 377.478 41.1471 388.145C40.8619 392.085 40.5688 396.128 40.3286 400.374C40.0117 405.974 39.617 412.945 39.7398 422.116C39.8612 431.28 40.4553 440.442 41.5022 449.35C43.0046 462.111 44.8014 470.196 45.3915 472.851C45.7057 474.27 45.7717 474.567 45.4496 475.129Z" fill="#F2F2F2"/>
<path d="M24.8967 339.632C24.7858 339.632 24.6736 339.629 24.5601 339.62C22.2576 339.483 20.1255 337.963 18.2218 335.103C17.3294 333.758 16.8726 332.223 15.9616 329.162C15.8204 328.69 15.1339 326.297 14.7167 323.003C14.4434 320.851 14.4777 319.951 14.8645 319.156C15.2936 318.271 15.988 317.653 16.7696 317.237C16.7353 316.952 16.763 316.657 16.8752 316.357C17.3359 315.114 18.5611 315.277 19.2238 315.356C19.5592 315.402 19.9777 315.463 20.4292 315.437C21.1394 315.399 21.521 315.166 22.0992 314.817C22.6524 314.482 23.3402 314.066 24.3607 313.836C26.3727 313.372 28.0586 314.002 28.6144 314.208C31.5386 315.283 32.9802 317.79 34.649 320.694C34.9817 321.276 36.1236 323.396 36.8774 326.302C37.4214 328.399 37.3448 329.331 37.1811 330.024C36.8484 331.448 36.0629 332.264 34.0681 334.063C31.9848 335.948 30.9392 336.891 30.0415 337.465C27.9516 338.796 26.6393 339.632 24.8967 339.632Z" fill="#F2F2F2"/>
<path d="M629.065 473.773C629.065 474.325 628.659 474.772 628.159 474.772H0V472.773H628.159C628.659 472.773 629.065 473.221 629.065 473.773Z" fill="#E6E6E6"/>
<path d="M447.724 157.788C447.724 157.788 413.911 162.273 419.615 132.787C425.318 103.301 457.657 48.8385 457.657 48.8385L476.008 60.1893L454.94 115.117L464.009 123.009L447.724 157.788Z" fill="#A0616A"/>
<path d="M558.53 121.891L553.765 165.112L434.372 164.467L458.351 118.503L558.53 121.891Z" fill="#6C63FF"/>
<path d="M487.579 51.135C494.885 39.8804 495.471 26.5421 488.888 21.343C482.304 16.1439 471.044 21.0528 463.738 32.3074C456.431 43.562 455.845 56.9004 462.429 62.0995C469.012 67.2986 480.272 62.3896 487.579 51.135Z" fill="#A0616A"/>
<path d="M547.05 286.671V474.244H554.381V286.671H547.05Z" fill="#3F3D56"/>
<path d="M511.864 286.671V474.244H519.195V286.671H511.864Z" fill="#3F3D56"/>
<path d="M314.674 168.63V474.244H322.005V168.63H314.674Z" fill="#E6E6E6"/>
<path d="M432.695 286.671V474.244H440.025V286.671H432.695Z" fill="#3F3D56"/>
<path d="M404.642 286.671V474.244H411.973V286.671H404.642Z" fill="#3F3D56"/>
<path d="M540.453 282.629H398.894L371.739 325.111L512.597 334.373L540.453 282.629Z" fill="#3F3D56"/>
<path d="M281.244 137.28L281.887 106.471L196.45 113.719L196.013 134.596L281.244 137.28Z" fill="#A0616A"/>
<path d="M223.421 110.038L219.335 120.881L213.466 121.088C213.466 121.088 220.337 123.408 222.246 137.179L216.607 139.044C216.607 139.044 211.192 144.616 201.07 144.075L173.929 141.571L173.824 131.136L192.583 128.745C192.583 128.745 196.763 125.712 176.071 113.243C176.071 113.243 169.217 108.62 175.382 85.7916C176.229 82.654 178.788 80.4005 181.756 80.3296C183.393 80.2905 184.928 80.9394 185.541 83.1831C187.1 88.8941 185.522 94.5874 189.808 98.1523C194.093 101.717 223.421 110.038 223.421 110.038Z" fill="#2F2E41"/>
<path d="M529.859 255.064C529.859 255.064 500.38 310.362 433.676 300.397C417.802 298.025 403.837 287.616 395.88 272.282C380.502 242.644 357.15 190.749 364.721 161.364L251.905 137.616L243.016 107.398L365.112 89.9046C375.912 88.3573 386.491 94.1498 391.902 104.573L451.378 219.132L469.109 221.268L529.859 255.064Z" fill="#2F2E41"/>
<path d="M283.471 149.892L281.864 119.126L197.234 133.931L198.321 154.779L283.471 149.892Z" fill="#A0616A"/>
<path d="M223.848 127.869L220.566 139.04L214.732 139.766C214.732 139.766 221.75 141.47 224.657 155.027L219.173 157.385C219.173 157.385 214.182 163.42 204.052 163.779L176.817 163.692L175.952 153.299L194.475 149.252C194.475 149.252 198.42 145.858 176.886 135.265C176.886 135.265 169.717 131.265 174.196 107.964C174.812 104.761 177.198 102.288 180.151 101.954C181.781 101.77 183.358 102.28 184.132 104.462C186.103 110.017 184.946 115.831 189.477 119.005C194.009 122.178 223.848 127.869 223.848 127.869Z" fill="#2F2E41"/>
<path d="M539.871 245.234C539.871 245.234 514.522 302.969 447.307 298.954C431.312 297.999 416.633 288.863 407.584 274.284C390.093 246.107 363.032 196.452 368.434 166.491L254.252 152.83L243.188 123.498L363.611 95.2284C374.263 92.7278 385.231 97.5627 391.385 107.472L459.025 216.382L476.853 216.937L539.871 245.234Z" fill="#2F2E41"/>
<path d="M462.6 1.43555L456.735 6.28655L487.523 53.1796L493.388 51.5626L462.6 1.43555Z" fill="#3F3D56"/>
<path d="M542.652 105.567L576.372 103.95L591.033 176.715C591.033 176.715 560.245 304.458 523.593 299.607C523.593 299.607 500.868 281.012 500.868 274.544C500.868 268.076 470.08 251.906 470.08 251.906L462.75 224.417L484.741 187.226C484.741 187.226 493.538 158.12 522.86 141.95L542.652 105.567Z" fill="black"/>
<path d="M349.86 162.162H50.0437V170.247H196.653V474.244H203.984V170.247H349.86V162.162Z" fill="#E6E6E6"/>
<path d="M560.245 99.0992C582.107 99.0992 599.83 79.5524 599.83 55.4402C599.83 31.3279 582.107 11.7811 560.245 11.7811C538.383 11.7811 520.66 31.3279 520.66 55.4402C520.66 79.5524 538.383 99.0992 560.245 99.0992Z" fill="#A0616A"/>
<path d="M422.224 111.227L394.576 123.354L448.822 202.587L467.881 186.417L422.224 111.227Z" fill="#E6E6E6"/>
<path d="M530.19 263.225C530.19 263.225 519.927 299.041 497.936 281.133C475.944 263.225 444.331 208.247 444.331 208.247L461.283 194.502L497.936 238.352L508.199 232.502L530.19 263.225Z" fill="#A0616A"/>
<path d="M546.317 137.099L580.037 159.737L530.19 279.395L497.936 230.885L546.317 137.099Z" fill="#424242"/>
<path d="M457.252 208.932C464.264 204.466 464.862 191.129 458.586 179.141C452.311 167.153 441.54 161.055 434.527 165.52C427.515 169.985 426.918 183.323 433.193 195.311C439.468 207.299 450.24 213.397 457.252 208.932Z" fill="#A0616A"/>
<path d="M564.574 187.627C574.733 150.894 585.635 139.269 597.098 146.547C605.822 152.087 608.448 164.697 603.335 174.261C590.302 198.641 563.447 254.5 569.042 291.523C569.042 291.523 577.838 343.267 507.466 343.267C437.093 343.267 369.653 325.48 369.653 325.48L406.305 319.012L489.657 325.578C508.701 327.078 524.751 309.107 522.207 288.237C522.123 287.548 522.023 286.851 521.907 286.147C517.728 260.8 564.574 187.627 564.574 187.627Z" fill="#3F3D56"/>
<path d="M545.409 37.3417C542.175 47.3279 549.28 57.6973 558.873 56.992L559.102 56.9752C565.551 65.8658 565.729 78.4422 559.535 87.5506C559.026 99.2902 560.693 111.021 564.435 122.026L574.948 152.945L591.132 144.615L598.812 167.225L644 141.55L616.613 73.5881L608.256 36.7168C602.31 10.4846 578.049 -5.30509 554.354 1.63658L536.175 6.96236C521.813 11.1699 513.547 27.7541 518.022 43.3827L545.409 37.3417Z" fill="#2F2E41"/>
</g>
<defs>
<clipPath id="clip0_104_22">
<rect width="644" height="476" fill="white"/>
</clipPath>
</defs>
</svg>
